<svg width="33" height="33" viewBox="0 0 33 33" fill="none" xmlns="http://www.w3.org/2000/svg">
<path d="M0 11.0625V17.1024C2.08571 17.101 4.15123 17.5065 6.07838 18.2959C8.00554 19.0852 9.75649 20.2429 11.2311 21.7025C12.7053 23.1617 13.8744 24.8941 14.6716 26.8007C15.4688 28.7072 15.8784 30.7506 15.8771 32.8139H21.9763C21.9708 27.0475 19.6538 21.5188 15.5337 17.4409C11.4137 13.363 5.82718 11.0691 0 11.0625H0Z" fill="black"/>
<path d="M30.5023 0.188477H20.8364C25.7262 3.25491 29.8695 7.3544 32.9689 12.1928V2.62762C32.9685 1.98056 32.7084 1.36016 32.2459 0.902782C31.7833 0.445402 31.1562 0.188476 30.5023 0.188477V0.188477Z" fill="black"/>
<path d="M6.07319 0.188477H0V5.62655C7.28415 5.63405 14.2678 8.50076 19.4186 13.5976C24.5693 18.6945 27.4664 25.6053 27.4743 32.8135H32.9688V26.8036C31.7265 20.1984 28.492 14.1202 23.6911 9.36941C18.8902 4.61859 12.748 1.41781 6.07319 0.188477V0.188477Z" fill="black"/>
</svg>
