<svg width="18" height="13" viewBox="0 0 18 13" fill="none" xmlns="http://www.w3.org/2000/svg">
<path d="M0.136 12V0.799999H7.16V2.176H1.832V5.712H6.248V7.072H1.832V12H0.136ZM13.3035 12.192C12.6848 12.192 12.1355 12.0693 11.6555 11.824C11.1862 11.5787 10.8128 11.232 10.5355 10.784L10.3595 12H8.8395V0.48H10.5355V5.296C10.7915 4.92267 11.1435 4.592 11.5915 4.304C12.0395 4.016 12.6155 3.872 13.3195 3.872C14.0875 3.872 14.7648 4.05333 15.3515 4.416C15.9382 4.77867 16.3968 5.27467 16.7275 5.904C17.0688 6.53333 17.2395 7.248 17.2395 8.048C17.2395 8.848 17.0688 9.56267 16.7275 10.192C16.3968 10.8107 15.9382 11.3013 15.3515 11.664C14.7648 12.016 14.0822 12.192 13.3035 12.192ZM13.0155 10.72C13.7408 10.72 14.3382 10.4747 14.8075 9.984C15.2768 9.48267 15.5115 8.832 15.5115 8.032C15.5115 7.50933 15.4048 7.04533 15.1915 6.64C14.9782 6.23467 14.6848 5.92 14.3115 5.696C13.9382 5.46133 13.5062 5.344 13.0155 5.344C12.2902 5.344 11.6928 5.59467 11.2235 6.096C10.7648 6.59733 10.5355 7.24267 10.5355 8.032C10.5355 8.832 10.7648 9.48267 11.2235 9.984C11.6928 10.4747 12.2902 10.72 13.0155 10.72Z" fill="black"/>
</svg>
