<svg width="12" height="16" viewBox="0 0 12 16" fill="none" xmlns="http://www.w3.org/2000/svg">
<path d="M0.136 12V0.799999H1.832V12H0.136ZM7.36875 9.568C6.95275 9.568 6.56875 9.52 6.21675 9.424L5.52875 10.096C5.64608 10.1707 5.79008 10.2347 5.96075 10.288C6.13142 10.3413 6.37142 10.3893 6.68075 10.432C6.99008 10.4747 7.41142 10.5173 7.94475 10.56C9.00075 10.656 9.76342 10.912 10.2328 11.328C10.7021 11.7333 10.9368 12.2773 10.9368 12.96C10.9368 13.4293 10.8088 13.872 10.5528 14.288C10.3074 14.7147 9.91808 15.056 9.38475 15.312C8.86208 15.5787 8.19008 15.712 7.36875 15.712C6.25942 15.712 5.35808 15.4987 4.66475 15.072C3.98208 14.656 3.64075 14.0213 3.64075 13.168C3.64075 12.8373 3.72608 12.5067 3.89675 12.176C4.07808 11.856 4.36075 11.552 4.74475 11.264C4.52075 11.168 4.32342 11.0667 4.15275 10.96C3.99275 10.8427 3.84875 10.7253 3.72075 10.608V10.224L5.09675 8.816C4.47808 8.28267 4.16875 7.584 4.16875 6.72C4.16875 6.19733 4.29142 5.72267 4.53675 5.296C4.79275 4.85867 5.16075 4.512 5.64075 4.256C6.12075 4 6.69675 3.872 7.36875 3.872C7.81675 3.872 8.23275 3.936 8.61675 4.064H11.5768V5.184L10.1688 5.264C10.4248 5.70133 10.5528 6.18667 10.5528 6.72C10.5528 7.25333 10.4248 7.73333 10.1688 8.16C9.92342 8.58667 9.56075 8.928 9.08075 9.184C8.61142 9.44 8.04075 9.568 7.36875 9.568ZM7.36875 8.24C7.85942 8.24 8.25408 8.112 8.55275 7.856C8.86208 7.58933 9.01675 7.216 9.01675 6.736C9.01675 6.24533 8.86208 5.872 8.55275 5.616C8.25408 5.36 7.85942 5.232 7.36875 5.232C6.86742 5.232 6.46208 5.36 6.15275 5.616C5.85408 5.872 5.70475 6.24533 5.70475 6.736C5.70475 7.216 5.85408 7.58933 6.15275 7.856C6.46208 8.112 6.86742 8.24 7.36875 8.24ZM5.24075 13.008C5.24075 13.4667 5.44342 13.808 5.84875 14.032C6.25408 14.2667 6.76075 14.384 7.36875 14.384C7.95542 14.384 8.43008 14.256 8.79275 14C9.15542 13.7547 9.33675 13.424 9.33675 13.008C9.33675 12.6987 9.21408 12.432 8.96875 12.208C8.72342 11.9947 8.25942 11.8613 7.57675 11.808C7.06475 11.776 6.61142 11.728 6.21675 11.664C5.84342 11.8667 5.58742 12.0853 5.44875 12.32C5.31008 12.5547 5.24075 12.784 5.24075 13.008Z" fill="black"/>
</svg>
