<svg width="168" height="33" viewBox="0 0 168 33" fill="none" xmlns="http://www.w3.org/2000/svg">
  <path d="M0.979004 11.0625V17.1024C3.06471 17.101 5.13023 17.5065 7.05739 18.2959C8.98454 19.0852 10.7355 20.2429 12.2101 21.7025C13.6843 23.1617 14.8534 24.8941 15.6506 26.8007C16.4478 28.7072 16.8574 30.7506 16.8561 32.8139H22.9553C22.9498 27.0475 20.6328 21.5188 16.5128 17.4409C12.3927 13.363 6.80618 11.0691 0.979004 11.0625H0.979004Z" fill="white"/>
  <path d="M31.4813 0.188477H21.8154C26.7052 3.25491 30.8485 7.3544 33.9479 12.1928V2.62762C33.9475 1.98056 33.6874 1.36016 33.2249 0.902782C32.7623 0.445402 32.1352 0.188476 31.4813 0.188477V0.188477Z" fill="white"/>
  <path d="M7.0522 0.188477H0.979004V5.62655C8.26315 5.63405 15.2468 8.50076 20.3976 13.5976C25.5483 18.6945 28.4454 25.6053 28.4533 32.8135H33.9478V26.8036C32.7055 20.1984 29.471 14.1202 24.6701 9.36941C19.8692 4.61859 13.727 1.41781 7.0522 0.188477V0.188477Z" fill="white"/>
  <path d="M48.8971 3.78027H45.0259V23.0891H48.8971V3.78027Z" fill="white"/>
  <path d="M63.1314 12.1456C62.487 11.5659 61.7326 11.1185 60.9121 10.8295C59.1496 10.217 57.2288 10.217 55.4662 10.8295C54.6454 11.1183 53.8907 11.5657 53.246 12.1456C52.6138 12.7224 52.1087 13.4221 51.7624 14.201C51.4045 15.0507 51.2202 15.9621 51.2202 16.8827C51.2202 17.8032 51.4045 18.7147 51.7624 19.5644C52.1074 20.3455 52.6126 21.0471 53.246 21.6249C53.8895 22.2052 54.6438 22.6524 55.4645 22.9402C57.2268 23.5538 59.148 23.5538 60.9104 22.9402C61.7313 22.6524 62.4859 22.2052 63.1297 21.6249C63.7628 21.0469 64.268 20.3453 64.6133 19.5644C64.9712 18.7147 65.1555 17.8032 65.1555 16.8827C65.1555 15.9621 64.9712 15.0507 64.6133 14.201C64.2673 13.4224 63.7629 12.7227 63.1314 12.1456ZM60.4731 19.1566C59.8462 19.7154 59.0324 20.0246 58.1887 20.0246C57.345 20.0246 56.5312 19.7154 55.9043 19.1566C55.3775 18.5129 55.09 17.7097 55.09 16.8814C55.09 16.0531 55.3775 15.2499 55.9043 14.6062C56.5312 14.0474 57.345 13.7382 58.1887 13.7382C59.0324 13.7382 59.8462 14.0474 60.4731 14.6062C61 15.2499 61.2875 16.0531 61.2875 16.8814C61.2875 17.7097 61 18.5129 60.4731 19.1566V19.1566Z" fill="white"/>
  <path d="M77.0292 12.3111H76.9806C76.8016 12.0624 76.5936 11.8353 76.3611 11.6346C76.0794 11.388 75.7675 11.1774 75.4328 11.0078C74.5866 10.5782 73.6474 10.3592 72.6964 10.3699C71.863 10.3555 71.0389 10.5442 70.2966 10.9194C69.605 11.2738 68.9943 11.765 68.5024 12.3626C68.0008 12.9786 67.6161 13.6793 67.3667 14.4309C67.1016 15.2052 66.9665 16.0173 66.9668 16.8348C66.957 17.7124 67.1056 18.5846 67.4058 19.4105C67.6777 20.1641 68.1016 20.8552 68.6516 21.4418C69.1997 22.0158 69.8648 22.468 70.6029 22.7683C71.4053 23.0919 72.2654 23.2525 73.1319 23.2405C73.7729 23.2295 74.4065 23.1042 75.0025 22.8704C75.6708 22.6196 76.2498 22.1798 76.6674 21.6058H76.7194V22.8078C76.734 23.2087 76.6672 23.6084 76.5231 23.9834C76.379 24.3584 76.1605 24.701 75.8805 24.9911C75.5252 25.3022 75.1097 25.5386 74.6594 25.6862C74.209 25.8338 73.733 25.8894 73.2603 25.8496C72.5108 25.8579 71.7679 25.7099 71.0801 25.4152C70.3956 25.1126 69.7571 24.7173 69.1826 24.2407L67.0405 27.4045C67.9161 28.1023 68.9395 28.5957 70.0346 28.8477C71.1182 29.0942 72.2265 29.2184 73.3384 29.2177C75.7816 29.2177 77.6009 28.609 78.7965 27.3916C79.992 26.1742 80.5901 24.3907 80.5907 22.0411V10.6764H77.0335L77.0292 12.3111ZM76.7967 17.9681C76.6439 18.3315 76.4201 18.6615 76.1381 18.9391C75.8511 19.2222 75.5145 19.4514 75.1447 19.6157C74.7608 19.7844 74.3454 19.8716 73.9253 19.8716C73.5053 19.8716 73.0898 19.7844 72.7059 19.6157C72.3411 19.4491 72.0089 19.2201 71.7247 18.9391C71.4415 18.6592 71.2168 18.3267 71.0635 17.9608C70.9102 17.5949 70.8313 17.2026 70.8313 16.8065C70.8313 16.4104 70.9102 16.0181 71.0635 15.6522C71.2168 15.2862 71.4415 14.9538 71.7247 14.6738C72.0091 14.3929 72.3413 14.1636 72.7059 13.9964C73.09 13.8283 73.5054 13.7414 73.9253 13.7414C74.3453 13.7414 74.7607 13.8283 75.1447 13.9964C75.5144 14.1613 75.8509 14.3908 76.1381 14.6738C76.564 15.0974 76.8538 15.6362 76.971 16.2224C77.0881 16.8086 77.0275 17.416 76.7967 17.9681V17.9681Z" fill="white"/>
  <path d="M95.1339 12.1456C94.4894 11.5659 93.7351 11.1185 92.9146 10.8295C91.152 10.217 89.2312 10.217 87.4686 10.8295C86.6478 11.1183 85.8931 11.5657 85.2485 12.1456C84.6162 12.7224 84.1112 13.4221 83.7649 14.201C83.4069 15.0507 83.2227 15.9621 83.2227 16.8827C83.2227 17.8032 83.4069 18.7147 83.7649 19.5644C84.1099 20.3455 84.6151 21.0471 85.2485 21.6249C85.8925 22.2054 86.6474 22.6526 87.4686 22.9402C89.231 23.5538 91.1522 23.5538 92.9146 22.9402C93.7355 22.6524 94.49 22.2052 95.1339 21.6249C95.7673 21.0471 96.2725 20.3455 96.6175 19.5644C96.9754 18.7147 97.1597 17.8032 97.1597 16.8827C97.1597 15.9621 96.9754 15.0507 96.6175 14.201C96.2712 13.4221 95.7661 12.7224 95.1339 12.1456V12.1456ZM92.4756 19.1566C91.8487 19.7154 91.0349 20.0246 90.1912 20.0246C89.3475 20.0246 88.5337 19.7154 87.9068 19.1566C87.3799 18.5129 87.0924 17.7097 87.0924 16.8814C87.0924 16.0531 87.3799 15.2499 87.9068 14.6062C88.5337 14.0474 89.3475 13.7382 90.1912 13.7382C91.0349 13.7382 91.8487 14.0474 92.4756 14.6062C93.0024 15.2499 93.2899 16.0531 93.2899 16.8814C93.2899 17.7097 93.0024 18.5129 92.4756 19.1566Z" fill="white"/>
  <path d="M102.295 10.7627H100.219V23.0889H102.295V10.7627Z" fill="white"/>
  <path d="M101.258 4.44168C101.056 4.43789 100.856 4.47572 100.671 4.55274C100.485 4.62976 100.317 4.74429 100.179 4.88898C99.968 5.09959 99.8246 5.36732 99.767 5.65844C99.7095 5.94955 99.7403 6.25101 99.8555 6.52483C99.9708 6.79866 100.165 7.03258 100.415 7.19713C100.664 7.36168 100.957 7.44949 101.257 7.44949C101.557 7.44949 101.85 7.36168 102.099 7.19713C102.349 7.03258 102.543 6.79866 102.659 6.52483C102.774 6.25101 102.805 5.94955 102.747 5.65844C102.69 5.36732 102.546 5.09959 102.335 4.88898C102.197 4.74422 102.03 4.62965 101.844 4.55262C101.658 4.47559 101.459 4.4378 101.258 4.44168V4.44168Z" fill="white"/>
  <path d="M117.653 12.2939C117.069 11.7038 116.366 11.2414 115.59 10.9365C114.739 10.6044 113.831 10.4391 112.916 10.4497C112.054 10.4399 111.201 10.6295 110.426 11.0035C109.663 11.379 108.988 11.908 108.443 12.5566H108.388V10.7622H106.314V29.094H108.388V20.9034H108.44C108.881 21.6546 109.524 22.2703 110.296 22.6824C111.193 23.1794 112.209 23.4296 113.237 23.407C114.078 23.4122 114.912 23.2463 115.686 22.9193C116.433 22.6056 117.108 22.144 117.668 21.5628C118.237 20.9688 118.685 20.2715 118.986 19.5091C119.625 17.846 119.625 16.0089 118.986 14.3458C118.682 13.5817 118.229 12.8844 117.653 12.2939V12.2939ZM116.92 18.733C116.727 19.2697 116.424 19.7614 116.031 20.1777C115.638 20.594 115.162 20.926 114.634 21.1533C113.467 21.6265 112.158 21.6265 110.99 21.1533C110.462 20.926 109.985 20.5937 109.592 20.177C109.198 19.7602 108.895 19.2679 108.702 18.7304C108.294 17.5623 108.294 16.2927 108.702 15.1245C108.895 14.5871 109.198 14.0948 109.592 13.678C109.985 13.2612 110.462 12.9289 110.99 12.7017C112.158 12.2285 113.467 12.2285 114.634 12.7017C115.163 12.9289 115.639 13.2612 116.033 13.678C116.426 14.0948 116.729 14.5871 116.923 15.1245C117.33 16.2927 117.33 17.5623 116.923 18.7304L116.92 18.733Z" fill="white"/>
  <path d="M129.923 16.9299C129.529 16.638 129.089 16.4113 128.622 16.2585C128.108 16.0871 127.583 15.9506 127.051 15.8499C126.652 15.7824 126.257 15.6947 125.867 15.5872C125.519 15.4937 125.181 15.3702 124.855 15.218C124.595 15.1009 124.359 14.9354 124.161 14.7303C123.993 14.5469 123.903 14.3065 123.909 14.0589C123.905 13.7917 123.984 13.5298 124.135 13.3086C124.284 13.09 124.479 12.9058 124.707 12.7685C124.951 12.6229 125.216 12.5162 125.493 12.4526C125.777 12.3831 126.068 12.3476 126.361 12.347C126.917 12.3298 127.467 12.4717 127.944 12.7556C128.375 13.0239 128.735 13.3893 128.996 13.822L130.725 12.6895C130.342 11.941 129.72 11.3389 128.955 10.9767C128.184 10.6225 127.343 10.4427 126.493 10.4504C125.917 10.4491 125.344 10.5289 124.79 10.6874C124.26 10.8371 123.756 11.0689 123.299 11.3742C122.861 11.6665 122.497 12.0538 122.234 12.5067C121.962 12.9889 121.824 13.5341 121.835 14.0864C121.814 14.627 121.937 15.1636 122.194 15.6412C122.429 16.0407 122.756 16.3791 123.149 16.6286C123.582 16.8992 124.053 17.1077 124.546 17.2476C125.078 17.4056 125.637 17.5461 126.223 17.6691C126.56 17.7395 126.889 17.8185 127.207 17.9061C127.506 17.9855 127.793 18.1051 128.059 18.2615C128.294 18.3993 128.498 18.5831 128.658 18.8016C128.818 19.0436 128.897 19.3292 128.884 19.6181C128.894 19.9216 128.811 20.2209 128.645 20.4766C128.48 20.719 128.262 20.9214 128.006 21.069C127.731 21.2318 127.429 21.3479 127.115 21.4124C126.795 21.4818 126.47 21.5172 126.143 21.518C125.496 21.5428 124.855 21.3875 124.293 21.0699C123.776 20.7443 123.321 20.331 122.949 19.849L121.301 21.1137C121.811 21.8979 122.535 22.523 123.39 22.9166C124.266 23.2606 125.203 23.4265 126.145 23.4043C126.758 23.4048 127.37 23.3342 127.967 23.1939C128.534 23.064 129.075 22.8368 129.564 22.5225C130.031 22.2159 130.417 21.8039 130.692 21.3206C130.99 20.772 131.137 20.1556 131.119 19.5331C131.135 18.9979 131.026 18.4661 130.799 17.9799C130.593 17.5678 130.293 17.2084 129.923 16.9299V16.9299Z" fill="white"/>
  <path d="M144.88 20.1656V10.7627H142.804V16.7726C142.811 17.4205 142.735 18.0666 142.578 18.6957C142.445 19.235 142.209 19.7443 141.884 20.1965C141.575 20.6169 141.162 20.9523 140.686 21.1709C140.138 21.4118 139.542 21.5291 138.943 21.5143C138.537 21.5468 138.13 21.4824 137.754 21.3266C137.379 21.1707 137.047 20.928 136.787 20.6189C136.288 19.9008 136.044 19.0394 136.093 18.1694V10.7627H134.016V18.3746C134.01 19.0646 134.104 19.7519 134.296 20.4154C134.463 21.0036 134.759 21.548 135.163 22.0097C135.568 22.4611 136.073 22.8137 136.638 23.04C137.312 23.3002 138.031 23.4257 138.754 23.4092C139.241 23.4131 139.725 23.3463 140.192 23.2109C140.613 23.0894 141.016 22.9124 141.389 22.6846C141.729 22.4776 142.038 22.2251 142.307 21.9342C142.55 21.6754 142.752 21.3822 142.907 21.0645H142.96C142.96 21.4165 142.969 21.7599 142.987 22.0947C143.004 22.4296 143.013 22.7633 143.013 23.0958H144.983C144.983 22.6911 144.965 22.2433 144.929 21.7522C144.893 21.2611 144.877 20.7322 144.88 20.1656Z" fill="white"/>
  <path d="M167.318 13.4631C167.18 12.8667 166.907 12.309 166.519 11.8319C166.129 11.3702 165.625 11.0155 165.056 10.8016C164.34 10.5458 163.581 10.4253 162.82 10.4462C161.994 10.4105 161.176 10.6265 160.477 11.0652C159.83 11.5248 159.287 12.1124 158.881 12.7909C158.775 12.5797 158.637 12.3382 158.468 12.0663C158.28 11.7727 158.041 11.5141 157.763 11.3022C157.421 11.0449 157.04 10.8421 156.635 10.7012C156.09 10.5201 155.518 10.4352 154.944 10.4505C154.458 10.4465 153.974 10.5133 153.507 10.6488C153.086 10.7702 152.683 10.9473 152.309 11.1751C151.97 11.3823 151.661 11.6348 151.391 11.9255C151.149 12.1842 150.947 12.4774 150.792 12.7952H150.739C150.739 12.4432 150.73 12.1015 150.713 11.7649C150.695 11.4284 150.686 11.0978 150.686 10.7639H148.716C148.716 11.1685 148.734 11.6164 148.769 12.1075C148.805 12.5986 148.822 13.1255 148.822 13.6881V23.0901H150.9V17.0854C150.893 16.4372 150.97 15.7907 151.126 15.1614C151.259 14.6219 151.495 14.1125 151.821 13.6606C152.129 13.2401 152.541 12.9046 153.018 12.6862C153.566 12.4451 154.162 12.3278 154.762 12.3427C155.117 12.3127 155.474 12.3763 155.797 12.5271C156.119 12.6779 156.395 12.9105 156.598 13.2013C157.043 14.1046 157.237 15.1096 157.157 16.1118V23.0918H159.229V15.9778C159.223 15.4709 159.309 14.967 159.482 14.49C159.636 14.0671 159.872 13.6781 160.176 13.3447C160.464 13.0325 160.812 12.7816 161.201 12.6072C161.594 12.4311 162.021 12.3412 162.452 12.3436C162.965 12.3252 163.475 12.4242 163.943 12.6329C164.311 12.8092 164.631 13.0718 164.874 13.3979C165.108 13.7208 165.271 14.0883 165.353 14.4771C165.442 14.8839 165.487 15.2989 165.486 15.7151V23.0901H167.558V15.6095C167.566 14.8871 167.485 14.1665 167.318 13.4631Z" fill="white"/>
</svg>
